<mxfile host="Electron" agent="Mozilla/5.0 (Windows NT 10.0; Win64; x64) AppleWebKit/537.36 (KHTML, like Gecko) draw.io/24.7.8 Chrome/128.0.6613.36 Electron/32.0.1 Safari/537.36" version="24.7.8">
  <diagram name="Сторінка-1" id="cIghRpoverF8wzW3XZFe">
    <mxGraphModel dx="980" dy="105" grid="1" gridSize="10" guides="1" tooltips="1" connect="1" arrows="1" fold="1" page="1" pageScale="1" pageWidth="827" pageHeight="1169" math="0" shadow="0">
      <root>
        <mxCell id="0" />
        <mxCell id="1" parent="0" />
        <mxCell id="uis_G3aYyTqZi-5rYSsA-3" value="" style="edgeStyle=orthogonalEdgeStyle;rounded=0;orthogonalLoop=1;jettySize=auto;html=1;" parent="1" source="uis_G3aYyTqZi-5rYSsA-1" target="uis_G3aYyTqZi-5rYSsA-2" edge="1">
          <mxGeometry relative="1" as="geometry" />
        </mxCell>
        <mxCell id="uis_G3aYyTqZi-5rYSsA-1" value="&lt;font style=&quot;font-size: 20px;&quot;&gt;start&lt;/font&gt;" style="strokeWidth=2;html=1;shape=mxgraph.flowchart.start_1;whiteSpace=wrap;" parent="1" vertex="1">
          <mxGeometry x="32" y="21" width="100" height="60" as="geometry" />
        </mxCell>
        <mxCell id="uis_G3aYyTqZi-5rYSsA-7" value="" style="edgeStyle=orthogonalEdgeStyle;rounded=0;orthogonalLoop=1;jettySize=auto;html=1;" parent="1" source="uis_G3aYyTqZi-5rYSsA-2" target="uis_G3aYyTqZi-5rYSsA-6" edge="1">
          <mxGeometry relative="1" as="geometry" />
        </mxCell>
        <mxCell id="uis_G3aYyTqZi-5rYSsA-2" value="&lt;font style=&quot;font-size: 20px;&quot;&gt;int ans = 1&lt;/font&gt;" style="whiteSpace=wrap;html=1;strokeWidth=2;" parent="1" vertex="1">
          <mxGeometry x="22" y="161" width="120" height="60" as="geometry" />
        </mxCell>
        <mxCell id="uis_G3aYyTqZi-5rYSsA-9" value="" style="edgeStyle=orthogonalEdgeStyle;rounded=0;orthogonalLoop=1;jettySize=auto;html=1;" parent="1" source="uis_G3aYyTqZi-5rYSsA-6" target="uis_G3aYyTqZi-5rYSsA-8" edge="1">
          <mxGeometry relative="1" as="geometry" />
        </mxCell>
        <mxCell id="uis_G3aYyTqZi-5rYSsA-6" value="&lt;font style=&quot;font-size: 20px;&quot;&gt;string books&lt;/font&gt;" style="whiteSpace=wrap;html=1;strokeWidth=2;" parent="1" vertex="1">
          <mxGeometry x="22" y="301" width="120" height="60" as="geometry" />
        </mxCell>
        <mxCell id="uis_G3aYyTqZi-5rYSsA-11" value="" style="edgeStyle=orthogonalEdgeStyle;rounded=0;orthogonalLoop=1;jettySize=auto;html=1;" parent="1" source="uis_G3aYyTqZi-5rYSsA-8" target="uis_G3aYyTqZi-5rYSsA-10" edge="1">
          <mxGeometry relative="1" as="geometry" />
        </mxCell>
        <mxCell id="uis_G3aYyTqZi-5rYSsA-8" value="&lt;font style=&quot;font-size: 20px;&quot;&gt;bool ibooks&lt;/font&gt;" style="whiteSpace=wrap;html=1;strokeWidth=2;" parent="1" vertex="1">
          <mxGeometry x="22" y="441" width="120" height="60" as="geometry" />
        </mxCell>
        <mxCell id="uis_G3aYyTqZi-5rYSsA-13" value="" style="edgeStyle=orthogonalEdgeStyle;rounded=0;orthogonalLoop=1;jettySize=auto;html=1;" parent="1" source="uis_G3aYyTqZi-5rYSsA-10" target="uis_G3aYyTqZi-5rYSsA-12" edge="1">
          <mxGeometry relative="1" as="geometry" />
        </mxCell>
        <mxCell id="uis_G3aYyTqZi-5rYSsA-10" value="&lt;div style=&quot;font-family: Consolas, &amp;quot;Courier New&amp;quot;, monospace; line-height: 19px; white-space: pre; font-size: 20px;&quot;&gt;&lt;font style=&quot;font-size: 20px;&quot;&gt;cout &amp;lt;&amp;lt;&quot;Welcome &lt;span style=&quot;background-color: initial;&quot;&gt;to our &lt;/span&gt;&lt;/font&gt;&lt;/div&gt;&lt;div style=&quot;font-family: Consolas, &amp;quot;Courier New&amp;quot;, monospace; line-height: 19px; white-space: pre; font-size: 20px;&quot;&gt;&lt;span style=&quot;background-color: initial;&quot;&gt;&lt;font style=&quot;font-size: 20px;&quot;&gt;library&quot;&lt;/font&gt;&lt;/span&gt;&lt;/div&gt;" style="shape=parallelogram;perimeter=parallelogramPerimeter;whiteSpace=wrap;html=1;fixedSize=1;strokeWidth=2;" parent="1" vertex="1">
          <mxGeometry x="-67" y="585" width="298" height="60" as="geometry" />
        </mxCell>
        <mxCell id="uis_G3aYyTqZi-5rYSsA-16" value="" style="edgeStyle=orthogonalEdgeStyle;rounded=0;orthogonalLoop=1;jettySize=auto;html=1;" parent="1" source="uis_G3aYyTqZi-5rYSsA-12" target="uis_G3aYyTqZi-5rYSsA-15" edge="1">
          <mxGeometry relative="1" as="geometry" />
        </mxCell>
        <mxCell id="uis_G3aYyTqZi-5rYSsA-12" value="&lt;div style=&quot;font-family: Consolas, &amp;quot;Courier New&amp;quot;, monospace; font-size: 20px; line-height: 19px; white-space: pre;&quot;&gt;&lt;div style=&quot;line-height: 19px;&quot;&gt;&quot;if you want to list &lt;/div&gt;&lt;div style=&quot;line-height: 19px;&quot;&gt;all books you shoud &lt;/div&gt;&lt;div style=&quot;line-height: 19px;&quot;&gt;to type \&quot;1\&quot;&quot;&lt;/div&gt;&lt;/div&gt;" style="shape=parallelogram;perimeter=parallelogramPerimeter;whiteSpace=wrap;html=1;fixedSize=1;strokeWidth=2;" parent="1" vertex="1">
          <mxGeometry x="-52" y="721" width="268" height="69" as="geometry" />
        </mxCell>
        <mxCell id="uis_G3aYyTqZi-5rYSsA-18" value="" style="edgeStyle=orthogonalEdgeStyle;rounded=0;orthogonalLoop=1;jettySize=auto;html=1;" parent="1" source="uis_G3aYyTqZi-5rYSsA-15" target="uis_G3aYyTqZi-5rYSsA-17" edge="1">
          <mxGeometry relative="1" as="geometry" />
        </mxCell>
        <mxCell id="uis_G3aYyTqZi-5rYSsA-15" value="&lt;div style=&quot;font-family: Consolas, &amp;quot;Courier New&amp;quot;, monospace; font-size: 20px; line-height: 19px; white-space: pre;&quot;&gt;&lt;div style=&quot;line-height: 19px;&quot;&gt;&quot;if you want to take a&lt;/div&gt;&lt;div style=&quot;line-height: 19px;&quot;&gt; &lt;span style=&quot;background-color: initial;&quot;&gt;book you shoud &lt;/span&gt;&lt;span style=&quot;background-color: initial;&quot;&gt;to &lt;/span&gt;&lt;/div&gt;&lt;div style=&quot;line-height: 19px;&quot;&gt;&lt;span style=&quot;background-color: initial;&quot;&gt;type \&quot;2\&quot;&quot;&lt;/span&gt;&lt;/div&gt;&lt;/div&gt;" style="shape=parallelogram;perimeter=parallelogramPerimeter;whiteSpace=wrap;html=1;fixedSize=1;strokeWidth=2;" parent="1" vertex="1">
          <mxGeometry x="-52" y="870" width="268" height="69" as="geometry" />
        </mxCell>
        <mxCell id="uis_G3aYyTqZi-5rYSsA-20" value="" style="edgeStyle=orthogonalEdgeStyle;rounded=0;orthogonalLoop=1;jettySize=auto;html=1;" parent="1" source="uis_G3aYyTqZi-5rYSsA-17" target="uis_G3aYyTqZi-5rYSsA-19" edge="1">
          <mxGeometry relative="1" as="geometry" />
        </mxCell>
        <mxCell id="uis_G3aYyTqZi-5rYSsA-17" value="&lt;div style=&quot;font-family: Consolas, &amp;quot;Courier New&amp;quot;, monospace; font-size: 20px; line-height: 19px; white-space: pre;&quot;&gt;&lt;div style=&quot;line-height: 19px;&quot;&gt;&quot;if you want to return &lt;/div&gt;&lt;div style=&quot;line-height: 19px;&quot;&gt;a&lt;span style=&quot;background-color: initial;&quot;&gt; &lt;/span&gt;&lt;span style=&quot;background-color: initial;&quot;&gt;book you shoud &lt;/span&gt;&lt;span style=&quot;background-color: initial;&quot;&gt;to &lt;/span&gt;&lt;/div&gt;&lt;div style=&quot;line-height: 19px;&quot;&gt;&lt;span style=&quot;background-color: initial;&quot;&gt;type \&quot;3\&quot;&quot;&lt;/span&gt;&lt;/div&gt;&lt;/div&gt;" style="shape=parallelogram;perimeter=parallelogramPerimeter;whiteSpace=wrap;html=1;fixedSize=1;strokeWidth=2;" parent="1" vertex="1">
          <mxGeometry x="-59" y="1020" width="282" height="69" as="geometry" />
        </mxCell>
        <mxCell id="uis_G3aYyTqZi-5rYSsA-22" value="" style="edgeStyle=orthogonalEdgeStyle;rounded=0;orthogonalLoop=1;jettySize=auto;html=1;" parent="1" source="uis_G3aYyTqZi-5rYSsA-19" target="uis_G3aYyTqZi-5rYSsA-21" edge="1">
          <mxGeometry relative="1" as="geometry" />
        </mxCell>
        <mxCell id="uis_G3aYyTqZi-5rYSsA-19" value="&lt;font style=&quot;font-size: 20px;&quot;&gt;int ans1&lt;/font&gt;" style="whiteSpace=wrap;html=1;strokeWidth=2;" parent="1" vertex="1">
          <mxGeometry x="22" y="1173.5" width="120" height="60" as="geometry" />
        </mxCell>
        <mxCell id="uis_G3aYyTqZi-5rYSsA-24" value="" style="edgeStyle=orthogonalEdgeStyle;rounded=0;orthogonalLoop=1;jettySize=auto;html=1;" parent="1" source="uis_G3aYyTqZi-5rYSsA-21" target="uis_G3aYyTqZi-5rYSsA-23" edge="1">
          <mxGeometry relative="1" as="geometry" />
        </mxCell>
        <mxCell id="uis_G3aYyTqZi-5rYSsA-119" value="" style="edgeStyle=orthogonalEdgeStyle;rounded=0;orthogonalLoop=1;jettySize=auto;html=1;" parent="1" source="uis_G3aYyTqZi-5rYSsA-21" target="uis_G3aYyTqZi-5rYSsA-118" edge="1">
          <mxGeometry relative="1" as="geometry" />
        </mxCell>
        <mxCell id="uis_G3aYyTqZi-5rYSsA-21" value="&lt;font style=&quot;font-size: 20px;&quot;&gt;ans!=0&lt;/font&gt;" style="rhombus;whiteSpace=wrap;html=1;strokeWidth=2;" parent="1" vertex="1">
          <mxGeometry x="42" y="1303.5" width="80" height="80" as="geometry" />
        </mxCell>
        <mxCell id="uis_G3aYyTqZi-5rYSsA-26" value="" style="edgeStyle=orthogonalEdgeStyle;rounded=0;orthogonalLoop=1;jettySize=auto;html=1;" parent="1" source="uis_G3aYyTqZi-5rYSsA-23" target="uis_G3aYyTqZi-5rYSsA-25" edge="1">
          <mxGeometry relative="1" as="geometry" />
        </mxCell>
        <mxCell id="uis_G3aYyTqZi-5rYSsA-23" value="&lt;font style=&quot;font-size: 20px;&quot;&gt;int action&lt;/font&gt;" style="whiteSpace=wrap;html=1;strokeWidth=2;" parent="1" vertex="1">
          <mxGeometry x="22" y="1473.5" width="120" height="60" as="geometry" />
        </mxCell>
        <mxCell id="uis_G3aYyTqZi-5rYSsA-28" value="" style="edgeStyle=orthogonalEdgeStyle;rounded=0;orthogonalLoop=1;jettySize=auto;html=1;" parent="1" source="uis_G3aYyTqZi-5rYSsA-25" target="uis_G3aYyTqZi-5rYSsA-27" edge="1">
          <mxGeometry relative="1" as="geometry" />
        </mxCell>
        <mxCell id="uis_G3aYyTqZi-5rYSsA-25" value="&lt;font style=&quot;font-size: 20px;&quot;&gt;&quot;what do you want to do&quot;&lt;/font&gt;" style="shape=parallelogram;perimeter=parallelogramPerimeter;whiteSpace=wrap;html=1;fixedSize=1;strokeWidth=2;" parent="1" vertex="1">
          <mxGeometry x="3" y="1613.5" width="158" height="60" as="geometry" />
        </mxCell>
        <mxCell id="uis_G3aYyTqZi-5rYSsA-30" value="" style="edgeStyle=orthogonalEdgeStyle;rounded=0;orthogonalLoop=1;jettySize=auto;html=1;" parent="1" source="uis_G3aYyTqZi-5rYSsA-27" target="uis_G3aYyTqZi-5rYSsA-29" edge="1">
          <mxGeometry relative="1" as="geometry" />
        </mxCell>
        <mxCell id="uis_G3aYyTqZi-5rYSsA-27" value="&lt;font style=&quot;font-size: 20px;&quot;&gt;action&lt;/font&gt;" style="shape=parallelogram;perimeter=parallelogramPerimeter;whiteSpace=wrap;html=1;fixedSize=1;strokeWidth=2;" parent="1" vertex="1">
          <mxGeometry x="3" y="1753.5" width="158" height="60" as="geometry" />
        </mxCell>
        <mxCell id="uis_G3aYyTqZi-5rYSsA-36" value="" style="edgeStyle=orthogonalEdgeStyle;rounded=0;orthogonalLoop=1;jettySize=auto;html=1;" parent="1" source="uis_G3aYyTqZi-5rYSsA-29" target="uis_G3aYyTqZi-5rYSsA-35" edge="1">
          <mxGeometry relative="1" as="geometry" />
        </mxCell>
        <mxCell id="uis_G3aYyTqZi-5rYSsA-51" value="" style="edgeStyle=orthogonalEdgeStyle;rounded=0;orthogonalLoop=1;jettySize=auto;html=1;" parent="1" source="uis_G3aYyTqZi-5rYSsA-29" target="uis_G3aYyTqZi-5rYSsA-50" edge="1">
          <mxGeometry relative="1" as="geometry" />
        </mxCell>
        <mxCell id="uis_G3aYyTqZi-5rYSsA-29" value="&lt;font style=&quot;font-size: 20px;&quot;&gt;action==1&lt;/font&gt;" style="rhombus;whiteSpace=wrap;html=1;strokeWidth=2;" parent="1" vertex="1">
          <mxGeometry x="24" y="1883.5" width="117" height="86.5" as="geometry" />
        </mxCell>
        <mxCell id="uis_G3aYyTqZi-5rYSsA-38" value="" style="edgeStyle=orthogonalEdgeStyle;rounded=0;orthogonalLoop=1;jettySize=auto;html=1;" parent="1" source="uis_G3aYyTqZi-5rYSsA-35" target="uis_G3aYyTqZi-5rYSsA-37" edge="1">
          <mxGeometry relative="1" as="geometry" />
        </mxCell>
        <mxCell id="uis_G3aYyTqZi-5rYSsA-35" value="&lt;div style=&quot;font-family: Consolas, &amp;quot;Courier New&amp;quot;, monospace; line-height: 19px; white-space: pre; font-size: 20px;&quot;&gt;&lt;font style=&quot;font-size: 20px;&quot;&gt;&quot;we are &lt;/font&gt;&lt;/div&gt;&lt;div style=&quot;font-family: Consolas, &amp;quot;Courier New&amp;quot;, monospace; line-height: 19px; white-space: pre; font-size: 20px;&quot;&gt;&lt;font style=&quot;font-size: 20px;&quot;&gt;having those &lt;/font&gt;&lt;/div&gt;&lt;div style=&quot;font-family: Consolas, &amp;quot;Courier New&amp;quot;, monospace; line-height: 19px; white-space: pre; font-size: 20px;&quot;&gt;&lt;font style=&quot;font-size: 20px;&quot;&gt;books:&quot;&lt;/font&gt;&lt;/div&gt;" style="shape=parallelogram;perimeter=parallelogramPerimeter;whiteSpace=wrap;html=1;fixedSize=1;strokeWidth=2;" parent="1" vertex="1">
          <mxGeometry x="-210" y="2000" width="170" height="80" as="geometry" />
        </mxCell>
        <mxCell id="uis_G3aYyTqZi-5rYSsA-40" value="" style="edgeStyle=orthogonalEdgeStyle;rounded=0;orthogonalLoop=1;jettySize=auto;html=1;" parent="1" source="uis_G3aYyTqZi-5rYSsA-37" target="uis_G3aYyTqZi-5rYSsA-39" edge="1">
          <mxGeometry relative="1" as="geometry" />
        </mxCell>
        <mxCell id="uis_G3aYyTqZi-5rYSsA-96" style="edgeStyle=orthogonalEdgeStyle;rounded=0;orthogonalLoop=1;jettySize=auto;html=1;exitX=1;exitY=0.5;exitDx=0;exitDy=0;entryX=0;entryY=0.5;entryDx=0;entryDy=0;" parent="1" source="uis_G3aYyTqZi-5rYSsA-37" target="uis_G3aYyTqZi-5rYSsA-97" edge="1">
          <mxGeometry relative="1" as="geometry">
            <mxPoint y="3340" as="targetPoint" />
            <Array as="points">
              <mxPoint x="20" y="2200" />
              <mxPoint x="20" y="2595" />
              <mxPoint x="-109" y="2595" />
              <mxPoint x="-109" y="3365" />
            </Array>
          </mxGeometry>
        </mxCell>
        <mxCell id="uis_G3aYyTqZi-5rYSsA-37" value="&lt;font style=&quot;font-size: 20px;&quot;&gt;int i=0; i&amp;lt;5&lt;/font&gt;" style="rhombus;whiteSpace=wrap;html=1;strokeWidth=2;" parent="1" vertex="1">
          <mxGeometry x="-192" y="2160" width="135" height="80" as="geometry" />
        </mxCell>
        <mxCell id="uis_G3aYyTqZi-5rYSsA-42" value="" style="edgeStyle=orthogonalEdgeStyle;rounded=0;orthogonalLoop=1;jettySize=auto;html=1;" parent="1" source="uis_G3aYyTqZi-5rYSsA-39" target="uis_G3aYyTqZi-5rYSsA-41" edge="1">
          <mxGeometry relative="1" as="geometry" />
        </mxCell>
        <mxCell id="uis_G3aYyTqZi-5rYSsA-46" style="edgeStyle=orthogonalEdgeStyle;rounded=0;orthogonalLoop=1;jettySize=auto;html=1;exitX=0;exitY=0.5;exitDx=0;exitDy=0;" parent="1" source="uis_G3aYyTqZi-5rYSsA-39" edge="1">
          <mxGeometry relative="1" as="geometry">
            <mxPoint x="-330" y="2360" as="targetPoint" />
          </mxGeometry>
        </mxCell>
        <mxCell id="uis_G3aYyTqZi-5rYSsA-39" value="&lt;span style=&quot;font-size: 20px;&quot;&gt;ibooks==1&lt;/span&gt;" style="rhombus;whiteSpace=wrap;html=1;strokeWidth=2;" parent="1" vertex="1">
          <mxGeometry x="-192" y="2320" width="135" height="80" as="geometry" />
        </mxCell>
        <mxCell id="uis_G3aYyTqZi-5rYSsA-43" style="edgeStyle=orthogonalEdgeStyle;rounded=0;orthogonalLoop=1;jettySize=auto;html=1;exitX=0;exitY=0.5;exitDx=0;exitDy=0;" parent="1" source="uis_G3aYyTqZi-5rYSsA-41" edge="1">
          <mxGeometry relative="1" as="geometry">
            <mxPoint x="-124" y="2110" as="targetPoint" />
            <Array as="points">
              <mxPoint x="-340" y="2520" />
              <mxPoint x="-340" y="2110" />
            </Array>
          </mxGeometry>
        </mxCell>
        <mxCell id="uis_G3aYyTqZi-5rYSsA-41" value="&lt;font style=&quot;font-size: 20px;&quot;&gt;books&lt;/font&gt;" style="shape=parallelogram;perimeter=parallelogramPerimeter;whiteSpace=wrap;html=1;fixedSize=1;strokeWidth=2;" parent="1" vertex="1">
          <mxGeometry x="-184.5" y="2490" width="120" height="60" as="geometry" />
        </mxCell>
        <mxCell id="uis_G3aYyTqZi-5rYSsA-47" value="&lt;font style=&quot;font-size: 20px;&quot;&gt;true&lt;/font&gt;" style="text;html=1;align=center;verticalAlign=middle;resizable=0;points=[];autosize=1;strokeColor=none;fillColor=none;" parent="1" vertex="1">
          <mxGeometry x="-41" y="1888" width="60" height="40" as="geometry" />
        </mxCell>
        <mxCell id="uis_G3aYyTqZi-5rYSsA-48" value="&lt;font style=&quot;font-size: 20px;&quot;&gt;true&lt;/font&gt;" style="text;html=1;align=center;verticalAlign=middle;resizable=0;points=[];autosize=1;strokeColor=none;fillColor=none;" parent="1" vertex="1">
          <mxGeometry x="-123" y="2241" width="60" height="40" as="geometry" />
        </mxCell>
        <mxCell id="uis_G3aYyTqZi-5rYSsA-49" value="&lt;font style=&quot;font-size: 20px;&quot;&gt;true&lt;/font&gt;" style="text;html=1;align=center;verticalAlign=middle;resizable=0;points=[];autosize=1;strokeColor=none;fillColor=none;" parent="1" vertex="1">
          <mxGeometry x="-126" y="2415" width="60" height="40" as="geometry" />
        </mxCell>
        <mxCell id="uis_G3aYyTqZi-5rYSsA-53" value="" style="edgeStyle=orthogonalEdgeStyle;rounded=0;orthogonalLoop=1;jettySize=auto;html=1;" parent="1" source="uis_G3aYyTqZi-5rYSsA-50" target="uis_G3aYyTqZi-5rYSsA-52" edge="1">
          <mxGeometry relative="1" as="geometry" />
        </mxCell>
        <mxCell id="uis_G3aYyTqZi-5rYSsA-88" style="edgeStyle=orthogonalEdgeStyle;rounded=0;orthogonalLoop=1;jettySize=auto;html=1;exitX=1;exitY=0.5;exitDx=0;exitDy=0;entryX=0.5;entryY=0;entryDx=0;entryDy=0;" parent="1" source="uis_G3aYyTqZi-5rYSsA-50" target="uis_G3aYyTqZi-5rYSsA-71" edge="1">
          <mxGeometry relative="1" as="geometry" />
        </mxCell>
        <mxCell id="uis_G3aYyTqZi-5rYSsA-50" value="&lt;font style=&quot;font-size: 20px;&quot;&gt;action==2&lt;/font&gt;" style="rhombus;whiteSpace=wrap;html=1;strokeWidth=2;" parent="1" vertex="1">
          <mxGeometry x="221" y="1985.5" width="117" height="86.5" as="geometry" />
        </mxCell>
        <mxCell id="uis_G3aYyTqZi-5rYSsA-55" value="" style="edgeStyle=orthogonalEdgeStyle;rounded=0;orthogonalLoop=1;jettySize=auto;html=1;" parent="1" source="uis_G3aYyTqZi-5rYSsA-52" target="uis_G3aYyTqZi-5rYSsA-54" edge="1">
          <mxGeometry relative="1" as="geometry" />
        </mxCell>
        <mxCell id="uis_G3aYyTqZi-5rYSsA-52" value="&lt;div style=&quot;font-family: Consolas, &amp;quot;Courier New&amp;quot;, monospace; line-height: 19px; white-space: pre;&quot;&gt;&lt;font style=&quot;font-size: 20px;&quot;&gt;&quot;which book do you&lt;/font&gt;&lt;span style=&quot;font-size: 20px; background-color: initial;&quot;&gt; want &lt;/span&gt;&lt;/div&gt;&lt;div style=&quot;font-family: Consolas, &amp;quot;Courier New&amp;quot;, monospace; line-height: 19px; white-space: pre;&quot;&gt;&lt;span style=&quot;font-size: 20px; background-color: initial;&quot;&gt;to take?(1-5)&quot;&lt;/span&gt;&lt;/div&gt;" style="shape=parallelogram;perimeter=parallelogramPerimeter;whiteSpace=wrap;html=1;fixedSize=1;strokeWidth=2;" parent="1" vertex="1">
          <mxGeometry x="125" y="2170" width="310" height="60" as="geometry" />
        </mxCell>
        <mxCell id="uis_G3aYyTqZi-5rYSsA-57" value="" style="edgeStyle=orthogonalEdgeStyle;rounded=0;orthogonalLoop=1;jettySize=auto;html=1;" parent="1" source="uis_G3aYyTqZi-5rYSsA-54" target="uis_G3aYyTqZi-5rYSsA-56" edge="1">
          <mxGeometry relative="1" as="geometry" />
        </mxCell>
        <mxCell id="uis_G3aYyTqZi-5rYSsA-54" value="&lt;font style=&quot;font-size: 20px;&quot;&gt;int number&lt;/font&gt;" style="whiteSpace=wrap;html=1;strokeWidth=2;" parent="1" vertex="1">
          <mxGeometry x="220" y="2310" width="120" height="60" as="geometry" />
        </mxCell>
        <mxCell id="uis_G3aYyTqZi-5rYSsA-59" value="" style="edgeStyle=orthogonalEdgeStyle;rounded=0;orthogonalLoop=1;jettySize=auto;html=1;" parent="1" source="uis_G3aYyTqZi-5rYSsA-56" target="uis_G3aYyTqZi-5rYSsA-58" edge="1">
          <mxGeometry relative="1" as="geometry" />
        </mxCell>
        <mxCell id="uis_G3aYyTqZi-5rYSsA-56" value="&lt;span style=&quot;font-size: 20px;&quot;&gt;number&lt;/span&gt;" style="shape=parallelogram;perimeter=parallelogramPerimeter;whiteSpace=wrap;html=1;fixedSize=1;strokeWidth=2;" parent="1" vertex="1">
          <mxGeometry x="220" y="2450" width="120" height="60" as="geometry" />
        </mxCell>
        <mxCell id="uis_G3aYyTqZi-5rYSsA-61" value="" style="edgeStyle=orthogonalEdgeStyle;rounded=0;orthogonalLoop=1;jettySize=auto;html=1;exitX=0;exitY=0.5;exitDx=0;exitDy=0;" parent="1" source="uis_G3aYyTqZi-5rYSsA-58" target="uis_G3aYyTqZi-5rYSsA-60" edge="1">
          <mxGeometry relative="1" as="geometry" />
        </mxCell>
        <mxCell id="uis_G3aYyTqZi-5rYSsA-64" value="" style="edgeStyle=orthogonalEdgeStyle;rounded=0;orthogonalLoop=1;jettySize=auto;html=1;exitX=1;exitY=0.5;exitDx=0;exitDy=0;" parent="1" source="uis_G3aYyTqZi-5rYSsA-58" target="uis_G3aYyTqZi-5rYSsA-63" edge="1">
          <mxGeometry relative="1" as="geometry" />
        </mxCell>
        <mxCell id="uis_G3aYyTqZi-5rYSsA-58" value="&lt;span style=&quot;color: rgb(0, 0, 0); font-family: Helvetica; font-size: 20px; font-style: normal; font-variant-ligatures: normal; font-variant-caps: normal; font-weight: 400; letter-spacing: normal; orphans: 2; text-align: center; text-indent: 0px; text-transform: none; widows: 2; word-spacing: 0px; -webkit-text-stroke-width: 0px; white-space: normal; text-decoration-thickness: initial; text-decoration-style: initial; text-decoration-color: initial; float: none; display: inline !important;&quot;&gt;&amp;nbsp;number&amp;gt;5||&lt;/span&gt;&lt;span style=&quot;font-size: 20px;&quot;&gt;&amp;nbsp;number&amp;lt;1&lt;/span&gt;" style="rhombus;whiteSpace=wrap;html=1;strokeWidth=2;" parent="1" vertex="1">
          <mxGeometry x="155" y="2579" width="250" height="101" as="geometry" />
        </mxCell>
        <mxCell id="uis_G3aYyTqZi-5rYSsA-60" value="&lt;div style=&quot;font-family: Consolas, &amp;quot;Courier New&amp;quot;, monospace; line-height: 19px; white-space: pre;&quot;&gt;&lt;font style=&quot;font-size: 20px;&quot;&gt;&quot;sorry, but we don&#39;t&lt;/font&gt;&lt;/div&gt;&lt;div style=&quot;font-family: Consolas, &amp;quot;Courier New&amp;quot;, monospace; line-height: 19px; white-space: pre;&quot;&gt;&lt;font style=&quot;font-size: 20px;&quot;&gt; have this book&quot;&lt;/font&gt;&lt;/div&gt;" style="shape=parallelogram;perimeter=parallelogramPerimeter;whiteSpace=wrap;html=1;fixedSize=1;strokeWidth=2;" parent="1" vertex="1">
          <mxGeometry x="-62" y="2700" width="270" height="60" as="geometry" />
        </mxCell>
        <mxCell id="uis_G3aYyTqZi-5rYSsA-62" value="&lt;font style=&quot;font-size: 20px;&quot;&gt;true&lt;/font&gt;" style="text;html=1;align=center;verticalAlign=middle;resizable=0;points=[];autosize=1;strokeColor=none;fillColor=none;" parent="1" vertex="1">
          <mxGeometry x="82" y="2595" width="60" height="40" as="geometry" />
        </mxCell>
        <mxCell id="uis_G3aYyTqZi-5rYSsA-66" value="" style="edgeStyle=orthogonalEdgeStyle;rounded=0;orthogonalLoop=1;jettySize=auto;html=1;exitX=0;exitY=0.5;exitDx=0;exitDy=0;" parent="1" source="uis_G3aYyTqZi-5rYSsA-63" target="uis_G3aYyTqZi-5rYSsA-65" edge="1">
          <mxGeometry relative="1" as="geometry">
            <mxPoint x="360" y="2740" as="sourcePoint" />
          </mxGeometry>
        </mxCell>
        <mxCell id="uis_G3aYyTqZi-5rYSsA-69" value="" style="edgeStyle=orthogonalEdgeStyle;rounded=0;orthogonalLoop=1;jettySize=auto;html=1;" parent="1" source="uis_G3aYyTqZi-5rYSsA-63" target="uis_G3aYyTqZi-5rYSsA-68" edge="1">
          <mxGeometry relative="1" as="geometry" />
        </mxCell>
        <mxCell id="uis_G3aYyTqZi-5rYSsA-63" value="&lt;span style=&quot;font-size: 20px;&quot;&gt;ibooks[number-1]==0&lt;/span&gt;" style="rhombus;whiteSpace=wrap;html=1;strokeWidth=2;" parent="1" vertex="1">
          <mxGeometry x="370" y="2688" width="250" height="101" as="geometry" />
        </mxCell>
        <mxCell id="uis_G3aYyTqZi-5rYSsA-65" value="&lt;div style=&quot;font-family: Consolas, &amp;quot;Courier New&amp;quot;, monospace; font-size: 20px; line-height: 19px; white-space: pre;&quot;&gt;&lt;div style=&quot;line-height: 19px;&quot;&gt;&quot;Sorry, but you&lt;/div&gt;&lt;div style=&quot;line-height: 19px;&quot;&gt; already took this&lt;/div&gt;&lt;div style=&quot;line-height: 19px;&quot;&gt; book&quot;&lt;/div&gt;&lt;/div&gt;" style="shape=parallelogram;perimeter=parallelogramPerimeter;whiteSpace=wrap;html=1;fixedSize=1;strokeWidth=2;" parent="1" vertex="1">
          <mxGeometry x="166" y="2843" width="249" height="70" as="geometry" />
        </mxCell>
        <mxCell id="uis_G3aYyTqZi-5rYSsA-67" value="&lt;font style=&quot;font-size: 20px;&quot;&gt;true&lt;/font&gt;" style="text;html=1;align=center;verticalAlign=middle;resizable=0;points=[];autosize=1;strokeColor=none;fillColor=none;" parent="1" vertex="1">
          <mxGeometry x="309" y="2700" width="60" height="40" as="geometry" />
        </mxCell>
        <mxCell id="uis_G3aYyTqZi-5rYSsA-68" value="&lt;span style=&quot;font-size: 20px;&quot;&gt;ibooks[number-1]=0&lt;/span&gt;" style="whiteSpace=wrap;html=1;strokeWidth=2;" parent="1" vertex="1">
          <mxGeometry x="670" y="2853" width="190" height="60" as="geometry" />
        </mxCell>
        <mxCell id="uis_G3aYyTqZi-5rYSsA-70" value="" style="edgeStyle=orthogonalEdgeStyle;rounded=0;orthogonalLoop=1;jettySize=auto;html=1;exitX=0.5;exitY=1;exitDx=0;exitDy=0;" parent="1" source="uis_G3aYyTqZi-5rYSsA-71" target="uis_G3aYyTqZi-5rYSsA-73" edge="1">
          <mxGeometry relative="1" as="geometry" />
        </mxCell>
        <mxCell id="uis_G3aYyTqZi-5rYSsA-91" style="edgeStyle=orthogonalEdgeStyle;rounded=0;orthogonalLoop=1;jettySize=auto;html=1;exitX=1;exitY=0.5;exitDx=0;exitDy=0;" parent="1" source="uis_G3aYyTqZi-5rYSsA-71" edge="1">
          <mxGeometry relative="1" as="geometry">
            <mxPoint x="90" y="540" as="targetPoint" />
            <Array as="points">
              <mxPoint x="870" y="2207" />
              <mxPoint x="870" y="540" />
            </Array>
          </mxGeometry>
        </mxCell>
        <mxCell id="uis_G3aYyTqZi-5rYSsA-71" value="&lt;font style=&quot;font-size: 20px;&quot;&gt;action==3&lt;/font&gt;" style="rhombus;whiteSpace=wrap;html=1;strokeWidth=2;" parent="1" vertex="1">
          <mxGeometry x="680" y="2163.75" width="117" height="86.5" as="geometry" />
        </mxCell>
        <mxCell id="uis_G3aYyTqZi-5rYSsA-72" value="" style="edgeStyle=orthogonalEdgeStyle;rounded=0;orthogonalLoop=1;jettySize=auto;html=1;" parent="1" source="uis_G3aYyTqZi-5rYSsA-73" target="uis_G3aYyTqZi-5rYSsA-75" edge="1">
          <mxGeometry relative="1" as="geometry" />
        </mxCell>
        <mxCell id="uis_G3aYyTqZi-5rYSsA-73" value="&lt;div style=&quot;font-family: Consolas, &amp;quot;Courier New&amp;quot;, monospace; line-height: 19px; white-space: pre;&quot;&gt;&lt;font style=&quot;font-size: 20px;&quot;&gt;&quot;which book do you&lt;/font&gt;&lt;span style=&quot;font-size: 20px; background-color: initial;&quot;&gt; want &lt;/span&gt;&lt;/div&gt;&lt;div style=&quot;font-family: Consolas, &amp;quot;Courier New&amp;quot;, monospace; line-height: 19px; white-space: pre;&quot;&gt;&lt;span style=&quot;font-size: 20px; background-color: initial;&quot;&gt;to return?(1-5)&quot;&lt;/span&gt;&lt;/div&gt;" style="shape=parallelogram;perimeter=parallelogramPerimeter;whiteSpace=wrap;html=1;fixedSize=1;strokeWidth=2;" parent="1" vertex="1">
          <mxGeometry x="1057" y="2385" width="310" height="60" as="geometry" />
        </mxCell>
        <mxCell id="uis_G3aYyTqZi-5rYSsA-74" value="" style="edgeStyle=orthogonalEdgeStyle;rounded=0;orthogonalLoop=1;jettySize=auto;html=1;" parent="1" source="uis_G3aYyTqZi-5rYSsA-75" target="uis_G3aYyTqZi-5rYSsA-77" edge="1">
          <mxGeometry relative="1" as="geometry" />
        </mxCell>
        <mxCell id="uis_G3aYyTqZi-5rYSsA-75" value="&lt;font style=&quot;font-size: 20px;&quot;&gt;int number&lt;/font&gt;" style="whiteSpace=wrap;html=1;strokeWidth=2;" parent="1" vertex="1">
          <mxGeometry x="1152" y="2525" width="120" height="60" as="geometry" />
        </mxCell>
        <mxCell id="uis_G3aYyTqZi-5rYSsA-76" value="" style="edgeStyle=orthogonalEdgeStyle;rounded=0;orthogonalLoop=1;jettySize=auto;html=1;" parent="1" source="uis_G3aYyTqZi-5rYSsA-77" target="uis_G3aYyTqZi-5rYSsA-80" edge="1">
          <mxGeometry relative="1" as="geometry" />
        </mxCell>
        <mxCell id="uis_G3aYyTqZi-5rYSsA-77" value="&lt;span style=&quot;font-size: 20px;&quot;&gt;number&lt;/span&gt;" style="shape=parallelogram;perimeter=parallelogramPerimeter;whiteSpace=wrap;html=1;fixedSize=1;strokeWidth=2;" parent="1" vertex="1">
          <mxGeometry x="1152" y="2665" width="120" height="60" as="geometry" />
        </mxCell>
        <mxCell id="uis_G3aYyTqZi-5rYSsA-79" value="" style="edgeStyle=orthogonalEdgeStyle;rounded=0;orthogonalLoop=1;jettySize=auto;html=1;exitX=1;exitY=0.5;exitDx=0;exitDy=0;" parent="1" source="uis_G3aYyTqZi-5rYSsA-80" target="uis_G3aYyTqZi-5rYSsA-84" edge="1">
          <mxGeometry relative="1" as="geometry" />
        </mxCell>
        <mxCell id="uis_G3aYyTqZi-5rYSsA-95" value="" style="edgeStyle=orthogonalEdgeStyle;rounded=0;orthogonalLoop=1;jettySize=auto;html=1;exitX=0;exitY=0.5;exitDx=0;exitDy=0;" parent="1" source="uis_G3aYyTqZi-5rYSsA-80" target="uis_G3aYyTqZi-5rYSsA-94" edge="1">
          <mxGeometry relative="1" as="geometry">
            <mxPoint x="1060" y="2830" as="sourcePoint" />
          </mxGeometry>
        </mxCell>
        <mxCell id="uis_G3aYyTqZi-5rYSsA-80" value="&lt;span style=&quot;color: rgb(0, 0, 0); font-family: Helvetica; font-size: 20px; font-style: normal; font-variant-ligatures: normal; font-variant-caps: normal; font-weight: 400; letter-spacing: normal; orphans: 2; text-align: center; text-indent: 0px; text-transform: none; widows: 2; word-spacing: 0px; -webkit-text-stroke-width: 0px; white-space: normal; text-decoration-thickness: initial; text-decoration-style: initial; text-decoration-color: initial; float: none; display: inline !important;&quot;&gt;&amp;nbsp;number&amp;gt;5||&lt;/span&gt;&lt;span style=&quot;font-size: 20px;&quot;&gt;&amp;nbsp;number&amp;lt;1&lt;/span&gt;" style="rhombus;whiteSpace=wrap;html=1;strokeWidth=2;" parent="1" vertex="1">
          <mxGeometry x="1087" y="2794" width="250" height="101" as="geometry" />
        </mxCell>
        <mxCell id="uis_G3aYyTqZi-5rYSsA-81" value="&lt;font style=&quot;font-size: 20px;&quot;&gt;true&lt;/font&gt;" style="text;html=1;align=center;verticalAlign=middle;resizable=0;points=[];autosize=1;strokeColor=none;fillColor=none;" parent="1" vertex="1">
          <mxGeometry x="1014" y="2725" width="60" height="40" as="geometry" />
        </mxCell>
        <mxCell id="uis_G3aYyTqZi-5rYSsA-82" value="" style="edgeStyle=orthogonalEdgeStyle;rounded=0;orthogonalLoop=1;jettySize=auto;html=1;exitX=0;exitY=0.5;exitDx=0;exitDy=0;" parent="1" source="uis_G3aYyTqZi-5rYSsA-84" target="uis_G3aYyTqZi-5rYSsA-85" edge="1">
          <mxGeometry relative="1" as="geometry">
            <mxPoint x="1292" y="2955" as="sourcePoint" />
          </mxGeometry>
        </mxCell>
        <mxCell id="uis_G3aYyTqZi-5rYSsA-83" value="" style="edgeStyle=orthogonalEdgeStyle;rounded=0;orthogonalLoop=1;jettySize=auto;html=1;" parent="1" source="uis_G3aYyTqZi-5rYSsA-84" target="uis_G3aYyTqZi-5rYSsA-87" edge="1">
          <mxGeometry relative="1" as="geometry" />
        </mxCell>
        <mxCell id="uis_G3aYyTqZi-5rYSsA-84" value="&lt;span style=&quot;font-size: 20px;&quot;&gt;ibooks[number-1]==1&lt;/span&gt;" style="rhombus;whiteSpace=wrap;html=1;strokeWidth=2;" parent="1" vertex="1">
          <mxGeometry x="1302" y="2903" width="250" height="101" as="geometry" />
        </mxCell>
        <mxCell id="uis_G3aYyTqZi-5rYSsA-85" value="&lt;div style=&quot;font-family: Consolas, &amp;quot;Courier New&amp;quot;, monospace; font-size: 20px; line-height: 19px; white-space: pre;&quot;&gt;&lt;div style=&quot;line-height: 19px;&quot;&gt;&quot;Sorry, but you&lt;/div&gt;&lt;div style=&quot;line-height: 19px;&quot;&gt; don&#39;t have this&lt;/div&gt;&lt;div style=&quot;line-height: 19px;&quot;&gt; book&quot;&lt;/div&gt;&lt;/div&gt;" style="shape=parallelogram;perimeter=parallelogramPerimeter;whiteSpace=wrap;html=1;fixedSize=1;strokeWidth=2;" parent="1" vertex="1">
          <mxGeometry x="1098" y="3058" width="249" height="70" as="geometry" />
        </mxCell>
        <mxCell id="uis_G3aYyTqZi-5rYSsA-86" value="&lt;font style=&quot;font-size: 20px;&quot;&gt;true&lt;/font&gt;" style="text;html=1;align=center;verticalAlign=middle;resizable=0;points=[];autosize=1;strokeColor=none;fillColor=none;" parent="1" vertex="1">
          <mxGeometry x="1241" y="2915" width="60" height="40" as="geometry" />
        </mxCell>
        <mxCell id="uis_G3aYyTqZi-5rYSsA-87" value="&lt;span style=&quot;font-size: 20px;&quot;&gt;ibooks[number-1]=1&lt;/span&gt;" style="whiteSpace=wrap;html=1;strokeWidth=2;" parent="1" vertex="1">
          <mxGeometry x="1602" y="3068" width="190" height="60" as="geometry" />
        </mxCell>
        <mxCell id="uis_G3aYyTqZi-5rYSsA-92" value="&lt;font style=&quot;font-size: 20px;&quot;&gt;true&lt;/font&gt;" style="text;html=1;align=center;verticalAlign=middle;resizable=0;points=[];autosize=1;strokeColor=none;fillColor=none;" parent="1" vertex="1">
          <mxGeometry x="224" y="2086" width="60" height="40" as="geometry" />
        </mxCell>
        <mxCell id="uis_G3aYyTqZi-5rYSsA-93" value="&lt;font style=&quot;font-size: 20px;&quot;&gt;true&lt;/font&gt;" style="text;html=1;align=center;verticalAlign=middle;resizable=0;points=[];autosize=1;strokeColor=none;fillColor=none;" parent="1" vertex="1">
          <mxGeometry x="677" y="2254" width="60" height="40" as="geometry" />
        </mxCell>
        <mxCell id="uis_G3aYyTqZi-5rYSsA-94" value="&lt;div style=&quot;font-family: Consolas, &amp;quot;Courier New&amp;quot;, monospace; line-height: 19px; white-space: pre;&quot;&gt;&lt;font style=&quot;font-size: 20px;&quot;&gt;&quot;sorry, but we didn&#39;t&lt;/font&gt;&lt;/div&gt;&lt;div style=&quot;font-family: Consolas, &amp;quot;Courier New&amp;quot;, monospace; line-height: 19px; white-space: pre;&quot;&gt;&lt;font style=&quot;font-size: 20px;&quot;&gt; have this book&quot;&lt;/font&gt;&lt;/div&gt;" style="shape=parallelogram;perimeter=parallelogramPerimeter;whiteSpace=wrap;html=1;fixedSize=1;strokeWidth=2;" parent="1" vertex="1">
          <mxGeometry x="880" y="2930" width="270" height="80" as="geometry" />
        </mxCell>
        <mxCell id="uis_G3aYyTqZi-5rYSsA-99" value="" style="edgeStyle=orthogonalEdgeStyle;rounded=0;orthogonalLoop=1;jettySize=auto;html=1;" parent="1" source="uis_G3aYyTqZi-5rYSsA-97" target="uis_G3aYyTqZi-5rYSsA-98" edge="1">
          <mxGeometry relative="1" as="geometry" />
        </mxCell>
        <mxCell id="uis_G3aYyTqZi-5rYSsA-97" value="&lt;div style=&quot;font-family: Consolas, &amp;quot;Courier New&amp;quot;, monospace; font-weight: normal; line-height: 19px; white-space: pre; font-size: 20px;&quot;&gt;&lt;div&gt;&lt;font style=&quot;font-size: 20px;&quot;&gt;&quot;if you &lt;/font&gt;&lt;span style=&quot;background-color: initial;&quot;&gt;want to&lt;/span&gt;&lt;/div&gt;&lt;div&gt;&lt;font style=&quot;font-size: 20px;&quot;&gt; continue&lt;/font&gt;&lt;span style=&quot;background-color: initial;&quot;&gt; type 1, &lt;/span&gt;&lt;/div&gt;&lt;div&gt;&lt;font style=&quot;font-size: 20px;&quot;&gt;else type 0&quot; &lt;/font&gt;&lt;/div&gt;&lt;/div&gt;" style="shape=parallelogram;perimeter=parallelogramPerimeter;whiteSpace=wrap;html=1;fixedSize=1;" parent="1" vertex="1">
          <mxGeometry x="-60" y="3310" width="260" height="110" as="geometry" />
        </mxCell>
        <mxCell id="uis_G3aYyTqZi-5rYSsA-101" value="" style="edgeStyle=orthogonalEdgeStyle;rounded=0;orthogonalLoop=1;jettySize=auto;html=1;" parent="1" source="uis_G3aYyTqZi-5rYSsA-98" target="uis_G3aYyTqZi-5rYSsA-100" edge="1">
          <mxGeometry relative="1" as="geometry" />
        </mxCell>
        <mxCell id="uis_G3aYyTqZi-5rYSsA-98" value="&lt;div style=&quot;font-family: Consolas, &amp;quot;Courier New&amp;quot;, monospace; font-weight: normal; line-height: 19px; white-space: pre; font-size: 20px;&quot;&gt;ans1&lt;/div&gt;" style="shape=parallelogram;perimeter=parallelogramPerimeter;whiteSpace=wrap;html=1;fixedSize=1;" parent="1" vertex="1">
          <mxGeometry x="9" y="3512" width="120" height="50" as="geometry" />
        </mxCell>
        <mxCell id="uis_G3aYyTqZi-5rYSsA-103" value="" style="edgeStyle=orthogonalEdgeStyle;rounded=0;orthogonalLoop=1;jettySize=auto;html=1;exitX=0;exitY=0.5;exitDx=0;exitDy=0;" parent="1" source="uis_G3aYyTqZi-5rYSsA-100" target="uis_G3aYyTqZi-5rYSsA-102" edge="1">
          <mxGeometry relative="1" as="geometry" />
        </mxCell>
        <mxCell id="uis_G3aYyTqZi-5rYSsA-108" value="" style="edgeStyle=orthogonalEdgeStyle;rounded=0;orthogonalLoop=1;jettySize=auto;html=1;entryX=0.5;entryY=0;entryDx=0;entryDy=0;" parent="1" source="uis_G3aYyTqZi-5rYSsA-100" target="uis_G3aYyTqZi-5rYSsA-107" edge="1">
          <mxGeometry relative="1" as="geometry" />
        </mxCell>
        <mxCell id="uis_G3aYyTqZi-5rYSsA-100" value="&lt;font style=&quot;font-size: 22px;&quot;&gt;ans !=0 &amp;amp;&amp;amp;&amp;nbsp;&lt;/font&gt;&lt;div&gt;&lt;font style=&quot;font-size: 22px;&quot;&gt;ans1 != 1&lt;/font&gt;&lt;/div&gt;" style="rhombus;whiteSpace=wrap;html=1;" parent="1" vertex="1">
          <mxGeometry x="-21" y="3627" width="181" height="183" as="geometry" />
        </mxCell>
        <mxCell id="uis_G3aYyTqZi-5rYSsA-106" style="edgeStyle=orthogonalEdgeStyle;rounded=0;orthogonalLoop=1;jettySize=auto;html=1;exitX=0;exitY=0.5;exitDx=0;exitDy=0;entryX=0;entryY=0.5;entryDx=0;entryDy=0;" parent="1" source="uis_G3aYyTqZi-5rYSsA-102" target="uis_G3aYyTqZi-5rYSsA-97" edge="1">
          <mxGeometry relative="1" as="geometry">
            <mxPoint x="-100" y="3470" as="targetPoint" />
            <mxPoint x="-160" y="3890" as="sourcePoint" />
            <Array as="points">
              <mxPoint x="-250" y="3870" />
              <mxPoint x="-250" y="3460" />
              <mxPoint x="-130" y="3460" />
              <mxPoint x="-130" y="3365" />
            </Array>
          </mxGeometry>
        </mxCell>
        <mxCell id="uis_G3aYyTqZi-5rYSsA-102" value="&lt;div style=&quot;font-family: Consolas, &amp;quot;Courier New&amp;quot;, monospace; font-size: 20px; line-height: 19px; white-space: pre;&quot;&gt;&quot;I&#39;m sorry, but&lt;/div&gt;&lt;div style=&quot;font-family: Consolas, &amp;quot;Courier New&amp;quot;, monospace; font-size: 20px; line-height: 19px; white-space: pre;&quot;&gt; I don&#39;t know &lt;/div&gt;&lt;div style=&quot;font-family: Consolas, &amp;quot;Courier New&amp;quot;, monospace; font-size: 20px; line-height: 19px; white-space: pre;&quot;&gt;this command so&quot;&lt;/div&gt;" style="shape=parallelogram;perimeter=parallelogramPerimeter;whiteSpace=wrap;html=1;fixedSize=1;" parent="1" vertex="1">
          <mxGeometry x="-182" y="3820" width="193" height="100" as="geometry" />
        </mxCell>
        <mxCell id="uis_G3aYyTqZi-5rYSsA-109" style="edgeStyle=orthogonalEdgeStyle;rounded=0;orthogonalLoop=1;jettySize=auto;html=1;exitX=0.5;exitY=1;exitDx=0;exitDy=0;" parent="1" source="uis_G3aYyTqZi-5rYSsA-107" edge="1">
          <mxGeometry relative="1" as="geometry">
            <mxPoint x="80" y="1420" as="targetPoint" />
            <Array as="points">
              <mxPoint x="325" y="3990" />
              <mxPoint x="-520" y="3990" />
              <mxPoint x="-520" y="1420" />
              <mxPoint x="-30" y="1420" />
            </Array>
          </mxGeometry>
        </mxCell>
        <mxCell id="uis_G3aYyTqZi-5rYSsA-114" value="" style="edgeStyle=orthogonalEdgeStyle;rounded=0;orthogonalLoop=1;jettySize=auto;html=1;" parent="1" source="uis_G3aYyTqZi-5rYSsA-107" target="uis_G3aYyTqZi-5rYSsA-113" edge="1">
          <mxGeometry relative="1" as="geometry" />
        </mxCell>
        <mxCell id="uis_G3aYyTqZi-5rYSsA-107" value="&lt;font style=&quot;font-size: 22px;&quot;&gt;ans1 == 1&lt;/font&gt;" style="rhombus;whiteSpace=wrap;html=1;" parent="1" vertex="1">
          <mxGeometry x="270" y="3800" width="110" height="110" as="geometry" />
        </mxCell>
        <mxCell id="uis_G3aYyTqZi-5rYSsA-110" value="&lt;font style=&quot;font-size: 20px;&quot;&gt;true&lt;/font&gt;" style="text;html=1;align=center;verticalAlign=middle;resizable=0;points=[];autosize=1;strokeColor=none;fillColor=none;" parent="1" vertex="1">
          <mxGeometry x="-81" y="3680" width="60" height="40" as="geometry" />
        </mxCell>
        <mxCell id="uis_G3aYyTqZi-5rYSsA-111" value="&lt;font style=&quot;font-size: 20px;&quot;&gt;true&lt;/font&gt;" style="text;html=1;align=center;verticalAlign=middle;resizable=0;points=[];autosize=1;strokeColor=none;fillColor=none;" parent="1" vertex="1">
          <mxGeometry x="320" y="3940" width="60" height="40" as="geometry" />
        </mxCell>
        <mxCell id="uis_G3aYyTqZi-5rYSsA-116" value="" style="edgeStyle=orthogonalEdgeStyle;rounded=0;orthogonalLoop=1;jettySize=auto;html=1;" parent="1" source="uis_G3aYyTqZi-5rYSsA-113" target="uis_G3aYyTqZi-5rYSsA-115" edge="1">
          <mxGeometry relative="1" as="geometry" />
        </mxCell>
        <mxCell id="uis_G3aYyTqZi-5rYSsA-113" value="&lt;div style=&quot;font-family: Consolas, &amp;quot;Courier New&amp;quot;, monospace; line-height: 19px; white-space: pre;&quot;&gt;&lt;font style=&quot;font-size: 20px;&quot;&gt;&quot;if you want to exit &lt;/font&gt;&lt;/div&gt;&lt;div style=&quot;font-family: Consolas, &amp;quot;Courier New&amp;quot;, monospace; line-height: 19px; white-space: pre;&quot;&gt;&lt;font style=&quot;font-size: 20px;&quot;&gt;the library you shoud&lt;/font&gt;&lt;/div&gt;&lt;div style=&quot;font-family: Consolas, &amp;quot;Courier New&amp;quot;, monospace; line-height: 19px; white-space: pre;&quot;&gt;&lt;font style=&quot;font-size: 20px;&quot;&gt; to type \&quot;0\&quot;&quot;&lt;/font&gt;&lt;/div&gt;" style="shape=parallelogram;perimeter=parallelogramPerimeter;whiteSpace=wrap;html=1;fixedSize=1;" parent="1" vertex="1">
          <mxGeometry x="455" y="3807" width="295" height="95" as="geometry" />
        </mxCell>
        <mxCell id="uis_G3aYyTqZi-5rYSsA-117" style="edgeStyle=orthogonalEdgeStyle;rounded=0;orthogonalLoop=1;jettySize=auto;html=1;exitX=1;exitY=0.5;exitDx=0;exitDy=0;" parent="1" source="uis_G3aYyTqZi-5rYSsA-115" edge="1">
          <mxGeometry relative="1" as="geometry">
            <mxPoint x="80" y="1270" as="targetPoint" />
            <Array as="points">
              <mxPoint x="1870" y="4048" />
              <mxPoint x="1870" y="1270" />
            </Array>
          </mxGeometry>
        </mxCell>
        <mxCell id="uis_G3aYyTqZi-5rYSsA-115" value="&lt;div style=&quot;font-family: Consolas, &amp;quot;Courier New&amp;quot;, monospace; line-height: 19px; white-space: pre;&quot;&gt;&lt;span style=&quot;font-size: 20px;&quot;&gt;ans&lt;/span&gt;&lt;/div&gt;" style="shape=parallelogram;perimeter=parallelogramPerimeter;whiteSpace=wrap;html=1;fixedSize=1;" parent="1" vertex="1">
          <mxGeometry x="455" y="4000" width="295" height="95" as="geometry" />
        </mxCell>
        <mxCell id="uis_G3aYyTqZi-5rYSsA-118" value="&lt;font style=&quot;font-size: 20px;&quot;&gt;end&lt;/font&gt;" style="ellipse;whiteSpace=wrap;html=1;strokeWidth=2;" parent="1" vertex="1">
          <mxGeometry x="201" y="1327" width="80" height="33.5" as="geometry" />
        </mxCell>
        <mxCell id="uis_G3aYyTqZi-5rYSsA-120" value="&lt;font style=&quot;font-size: 20px;&quot;&gt;true&lt;/font&gt;" style="text;html=1;align=center;verticalAlign=middle;resizable=0;points=[];autosize=1;strokeColor=none;fillColor=none;" parent="1" vertex="1">
          <mxGeometry x="81" y="1380" width="60" height="40" as="geometry" />
        </mxCell>
      </root>
    </mxGraphModel>
  </diagram>
</mxfile>
